<svg xmlns="http://www.w3.org/2000/svg" viewBox="0 0 64 64"><path fill="#b4cde1" d="M6 24.13a1 1 0 0 1-1-1V11a6 6 0 0 1 6-6 1 1 0 0 1 0 2 4 4 0 0 0-4 4v12.13a1 1 0 0 1-1 1zm26 0a1 1 0 0 1-1-1V11a4 4 0 0 0-4-4 1 1 0 0 1 0-2 6 6 0 0 1 6 6v12.13a1 1 0 0 1-1 1zM36 61a18 18 0 0 1-18-18 1 1 0 0 1 2 0 16 16 0 0 0 32 0V19a1 1 0 0 1 2 0v24a18 18 0 0 1-18 18z"/><path fill="#96a1c3" d="M53 8a7 7 0 1 0 7 7 7 7 0 0 0-7-7Zm0 10a3 3 0 1 1 3-3 3 3 0 0 1-3 3Z"/><path fill="#ccd3eb" d="M53 10a5 5 0 1 0 5 5 5 5 0 0 0-5-5Zm0 7.14A2.14 2.14 0 1 1 55.14 15 2.13 2.13 0 0 1 53 17.14Z"/><path fill="#ccd3eb" d="M56 15a3 3 0 0 1-3 3 2.93 2.93 0 0 1-2.24-1A3 3 0 0 1 53 12a1 1 0 0 1 .24 0A3 3 0 0 1 56 15Z"/><path fill="#f5f7ff" d="M54 14a3 3 0 0 1-3 3 1 1 0 0 1-.24 0A3 3 0 0 1 53 12a1 1 0 0 1 .24 0 3 3 0 0 1 .76 2Z"/><path fill="#0074ff" d="M33.71 25.54a11.47 11.47 0 0 1-4.3 6.26A16.64 16.64 0 0 1 21 35v6a2 2 0 0 1-2 2 2 2 0 0 1-2-2v-6c-6.29-.67-11.35-4.47-12.67-9.37a2 2 0 0 1 1.93-2.52 2 2 0 0 1 1.91 1.46c1 3.72 5.44 6.55 10.82 6.55a13 13 0 0 0 8-2.52 7.55 7.55 0 0 0 2.84-4 2 2 0 0 1 1.92-1.49 2 2 0 0 1 1.96 2.43Z"/><path fill="#ccd3eb" d="M15 6a2 2 0 0 1-2 2h-2V4h2a2 2 0 0 1 2 2zm12-2v4h-2a2 2 0 0 1-2-2 2 2 0 0 1 2-2z"/><path fill="#033c59" d="M61 15a8 8 0 1 0-9 7.93V43a16 16 0 0 1-32 .81 3 3 0 0 0 1.07-.68A3 3 0 0 0 22 41v-5.1a17.32 17.32 0 0 0 8-3.31 12.42 12.42 0 0 0 4.66-6.81 2.9 2.9 0 0 0-.55-2.49 2.94 2.94 0 0 0-1.11-.88V11a6 6 0 0 0-5-5.91V4a1 1 0 0 0-1-1h-2a3 3 0 0 0 0 6h2a1 1 0 0 0 1-1v-.86A4 4 0 0 1 31 11v11.23a3 3 0 0 0-2.16 2.14 5.58 5.58 0 0 1-1 1.94 1 1 0 0 0 1.6 1.2 7.65 7.65 0 0 0 1.3-2.64 1 1 0 0 1 1-.74 1 1 0 0 1 .81.4.87.87 0 0 1 .18.77A10.5 10.5 0 0 1 28.8 31a15.65 15.65 0 0 1-7.9 3 1 1 0 0 0-.9 1v6a1 1 0 0 1-.31.71.93.93 0 0 1-.69.29 1 1 0 0 1-1-1v-6a1 1 0 0 0-.89-1c-5.84-.63-10.59-4.1-11.81-8.64a1 1 0 0 1 .17-.87 1 1 0 0 1 .8-.39 1 1 0 0 1 .94.71c1.08 4.23 6 7.3 11.79 7.3a16.14 16.14 0 0 0 2.14-.11 1 1 0 0 0 .86-1.13 1 1 0 0 0-1.14-.87 13.63 13.63 0 0 1-1.86.12c-4.77 0-9-2.49-9.85-5.8A2.93 2.93 0 0 0 7 22.23V11a4 4 0 0 1 3-3.86V8a1 1 0 0 0 1 1h2a3 3 0 0 0 0-6h-2a1 1 0 0 0-1 1v1.09A6 6 0 0 0 5 11v11.41a3 3 0 0 0-1.64 3.5c1.38 5.09 6.4 9 12.64 10V41a3 3 0 0 0 2 2.83A18 18 0 0 0 54 43V22.93A8 8 0 0 0 61 15ZM26 7h-1a1 1 0 0 1 0-2h1ZM12 5h1a1 1 0 0 1 0 2h-1Zm41 12a2 2 0 1 1 2-2 2 2 0 0 1-2 2Zm1 3.91V19a.5.5 0 0 0 0-.13 4 4 0 1 0-1.94 0A.5.5 0 0 0 52 19v1.91a6 6 0 1 1 2 0Z"/><path fill="#033c59" d="M24.7 31a1 1 0 0 0 .37-.07 9.82 9.82 0 0 0 1.09-.53 1 1 0 0 0 .37-1.4 1 1 0 0 0-1.37-.36 6.24 6.24 0 0 1-.83.4A1 1 0 0 0 24.7 31Z"/></svg>